# xmcd
#
# Track frame offsets:
#	151
#	14051
#	26959
#	41385
#	51292
#	63078
#	73608
#	91909
#	101602
#	114120
#	125543
#	136456
#	148710
#
# Disc length: 2145 seconds
#
# Revision: 1
# Processed by: cddbd v1.5.2PL0 Copyright (c) Steve Scherf et al.
# Submitted via: EasyCDDAExtractor 7.0.3.1
#
DISCID=b6085f0d
DTITLE=Various Artist - Bluegrass Railroad-Cracker Barrel
DYEAR=2007
DGENRE=Bluegrass
TTITLE0=John Henry
TTITLE1=Wabash Cannonball
TTITLE2=Freight Train
TTITLE3=Train 45
TTITLE4=Life's Railway To Heaven
TTITLE5=Wreck of the Old 97
TTITLE6=Kansas City Railroad Blues
TTITLE7=Orange Blossom Special
TTITLE8=City Of New Orleans
TTITLE9=Fireball Mail
TTITLE10=Nine Pound Hammer
TTITLE11=Glendale Train
TTITLE12=Reuben's Train
EXTD=
EXTT0=
EXTT1=
EXTT2=
EXTT3=
EXTT4=
EXTT5=
EXTT6=
EXTT7=
EXTT8=
EXTT9=
EXTT10=
EXTT11=
EXTT12=
PLAYORDER=
